<svg width="14" height="14" viewBox="0 0 14 14" fill="none" xmlns="http://www.w3.org/2000/svg">
<path fill-rule="evenodd" clip-rule="evenodd" d="M5.24264 6.65685L0.292893 1.70711C-0.0976311 1.31658 -0.0976311 0.683418 0.292893 0.292893C0.683418 -0.0976311 1.31658 -0.0976311 1.70711 0.292893L6.65685 5.24264L11.6066 0.292893C11.9971 -0.0976311 12.6303 -0.0976311 13.0208 0.292893C13.4113 0.683418 13.4113 1.31658 13.0208 1.70711L8.07107 6.65685L13.0208 11.6066C13.4113 11.9971 13.4113 12.6303 13.0208 13.0208C12.6303 13.4113 11.9971 13.4113 11.6066 13.0208L6.65685 8.07107L1.70711 13.0208C1.31658 13.4113 0.683418 13.4113 0.292893 13.0208C-0.0976311 12.6303 -0.0976311 11.9971 0.292893 11.6066L5.24264 6.65685Z" fill="white"/>
</svg>
